<?xml version="1.0" encoding="utf-8"?>
<!-- Generator: Adobe Illustrator 23.0.1, SVG Export Plug-In . SVG Version: 6.00 Build 0)  -->
<svg version="1.1" id="Layer_1" xmlns="http://www.w3.org/2000/svg" xmlns:xlink="http://www.w3.org/1999/xlink" x="0px" y="0px"
	 viewBox="0 0 14 14" style="enable-background:new 0 0 14 14;" xml:space="preserve">
<style type="text/css">
	.st0{fill:#6742C0;}
</style>
<g>
	<g id="ic_AdministrativeHierarchy">
		<g id="hierarchical-structure" transform="translate(0.543 -32.529)">
			<g id="Group_16" transform="translate(6.355 39.612)">
				<g id="Group_15">
					<path id="Path_41" class="st0" d="M0.1-0.4C0-0.4-0.1-0.3-0.1-0.2v3.5c0,0.1,0.1,0.2,0.2,0.2s0.2-0.1,0.2-0.2v-3.5
						C0.3-0.3,0.2-0.4,0.1-0.4L0.1-0.4z"/>
				</g>
			</g>
			<g id="Group_18" transform="translate(5.26 42.899)">
				<g id="Group_17">
					<path id="Path_42" class="st0" d="M2.3-0.2H0.1C0-0.2-0.1,0-0.1,0.1v2.4c0,0.1,0.1,0.2,0.2,0.2h2.2c0.1,0,0.2-0.1,0.2-0.2V0.1
						C2.5,0,2.4-0.2,2.3-0.2z"/>
				</g>
			</g>
			<g id="Group_20" transform="translate(0 42.899)">
				<g id="Group_19">
					<path id="Path_43" class="st0" d="M2.3-0.2H0.1C0-0.2-0.1,0-0.1,0.1v2.4c0,0.1,0.1,0.2,0.2,0.2h2.2c0.1,0,0.2-0.1,0.2-0.2V0.1
						C2.5,0,2.4-0.2,2.3-0.2z"/>
				</g>
			</g>
			<g id="Group_22" transform="translate(10.519 42.899)">
				<g id="Group_21">
					<path id="Path_44" class="st0" d="M2.3-0.2H0.1C0-0.2-0.1,0-0.1,0.1v2.4c0,0.1,0.1,0.2,0.2,0.2h2.2c0.1,0,0.2-0.1,0.2-0.2V0.1
						C2.5,0,2.4-0.2,2.3-0.2z M2.1,2.2H0.3V0.3h1.8V2.2z"/>
				</g>
			</g>
			<g id="Group_24" transform="translate(1.096 40.707)">
				<g id="Group_23">
					<path id="Path_45" class="st0" d="M8.7-0.3H2.1C0.9-0.3-0.1,0.8-0.1,2c0,0.1,0.1,0.2,0.2,0.2S0.3,2.2,0.3,2
						c0-1.1,0.8-1.9,1.8-1.9h6.6c1,0,1.8,0.9,1.8,1.9c0,0.1,0.1,0.2,0.2,0.2c0.1,0,0.2-0.1,0.2-0.2C10.9,0.8,9.9-0.3,8.7-0.3z"/>
				</g>
			</g>
			<g id="Group_26" transform="translate(0 34.133)">
				<g id="Group_25">
					<path id="Path_46" class="st0" d="M12.8-0.8H0.1C0-0.8-0.1-0.7-0.1-0.6l0,0v5.7c0,0.1,0.1,0.2,0.2,0.2l0,0h12.7
						c0.1,0,0.2-0.1,0.2-0.2l0,0v-5.7C13-0.7,13-0.8,12.8-0.8z M12.6,4.9H0.3v-5.3h12.3V4.9L12.6,4.9z"/>
				</g>
			</g>
			<g id="Group_28" transform="translate(3.287 35.667)">
				<g id="Group_27">
					<path id="Path_47" class="st0" d="M6.3-0.7H0.1C0-0.7-0.1-0.6-0.1-0.5S0-0.3,0.1-0.3h6.1c0.1,0,0.2-0.1,0.2-0.2
						S6.4-0.7,6.3-0.7z"/>
				</g>
			</g>
			<g id="Group_30" transform="translate(3.287 36.763)">
				<g id="Group_29">
					<path id="Path_48" class="st0" d="M6.3-0.6H0.1C0-0.6-0.1-0.5-0.1-0.4S0-0.2,0.1-0.2h6.1c0.1,0,0.2-0.1,0.2-0.2
						C6.5-0.5,6.4-0.6,6.3-0.6z"/>
				</g>
			</g>
			<g id="Group_32" transform="translate(3.287 37.859)">
				<g id="Group_31">
					<path id="Path_49" class="st0" d="M6.3-0.5H0.1C0-0.5-0.1-0.4-0.1-0.3S0-0.1,0.1-0.1h6.1c0.1,0,0.2-0.1,0.2-0.2
						C6.5-0.4,6.4-0.5,6.3-0.5z"/>
				</g>
			</g>
		</g>
	</g>
</g>
</svg>
