<?xml version="1.0" encoding="utf-8"?>
<!-- Generator: Adobe Illustrator 23.0.1, SVG Export Plug-In . SVG Version: 6.00 Build 0)  -->
<svg version="1.1" id="Layer_1" xmlns="http://www.w3.org/2000/svg" xmlns:xlink="http://www.w3.org/1999/xlink" x="0px" y="0px"
	 viewBox="0 0 18 18" style="enable-background:new 0 0 18 18;" xml:space="preserve">
<style type="text/css">
	.st0{fill:#6742C0;}
</style>
<path id="Rectangle_50" class="st0" d="M2,1h5.7c0.6,0,1,0.4,1,1v5.7c0,0.6-0.4,1-1,1H2c-0.6,0-1-0.4-1-1V2C1,1.4,1.4,1,2,1z"/>
<path id="Rectangle_51" class="st0" d="M2,9.3h5.7c0.6,0,1,0.4,1,1V16c0,0.6-0.4,1-1,1H2c-0.6,0-1-0.4-1-1v-5.7C1,9.7,1.4,9.3,2,9.3
	z"/>
<path id="Rectangle_53" class="st0" d="M10.3,9.3H16c0.6,0,1,0.4,1,1V16c0,0.6-0.4,1-1,1h-5.7c-0.6,0-1-0.4-1-1v-5.7
	C9.3,9.7,9.7,9.3,10.3,9.3z"/>
<path class="st0" d="M16,1h-5.7c-0.6,0-1,0.4-1,1v5.7c0,0.6,0.4,1,1,1H16c0.6,0,1-0.4,1-1V2C17,1.4,16.6,1,16,1z M16,7.6h-5.7V1.9
	H16V7.6z"/>
</svg>
