<?xml version="1.0" encoding="utf-8"?>
<!-- Generator: Adobe Illustrator 23.0.1, SVG Export Plug-In . SVG Version: 6.00 Build 0)  -->
<svg version="1.1" id="Layer_1" xmlns="http://www.w3.org/2000/svg" xmlns:xlink="http://www.w3.org/1999/xlink" x="0px" y="0px"
	 viewBox="0 0 18 18" style="enable-background:new 0 0 18 18;" xml:space="preserve">
<style type="text/css">
	.st0{fill:#6235EF;}
</style>
<g>
	<g id="ic_DriverManagement">
		<g id="Group_2" transform="translate(2.5 0.8)">
			<g id="Group_1" transform="translate(0 7.616)">
				<path id="Path_1" class="st0" d="M6.6,4C4.6,4,3,5.6,3,7.6l0,0h7.2C10.2,5.6,8.6,4,6.6,4L6.6,4z"/>
				<path id="Path_2" class="st0" d="M8.6,0C8.4,0,8.2,0.1,8.2,0.2L7,2C6.8,2.2,6.5,2.3,6.3,2.1c0,0-0.1-0.1-0.1-0.1L5,0.2
					C4.9,0.1,4.8,0,4.6,0C2.1,0,0.1,2,0,4.5v4.3c0,0.1,0.1,0.1,0.1,0.1l0,0h2.4c0.4,0,0.7-0.3,0.7-0.7c0-0.4-0.3-0.7-0.7-0.7
					c0,0,0,0,0,0H2.1C2.2,5,4.3,3.1,6.7,3.2c2.3,0.1,4.2,2,4.3,4.3h-0.4c-0.4,0-0.7,0.3-0.7,0.7c0,0.4,0.3,0.7,0.7,0.7c0,0,0,0,0,0
					h2.4c0.1,0,0.1-0.1,0.1-0.1l0,0V4.5C13.1,2,11,0,8.6,0z"/>
			</g>
			<path id="Path_3" class="st0" d="M6.6,0c-1.7,0-3,1.4-3,3s1.4,3,3,3s3.1-1.4,3.1-3S8.3,0,6.6,0L6.6,0z M6.6,5.1
				C5.4,5.1,4.5,4.2,4.5,3S5.4,1,6.6,1S8.7,1.9,8.7,3c0,0,0,0,0,0C8.7,4.2,7.7,5.1,6.6,5.1z"/>
		</g>
	</g>
</g>
</svg>
