<?xml version="1.0" encoding="utf-8"?>
<!-- Generator: Adobe Illustrator 23.0.2, SVG Export Plug-In . SVG Version: 6.00 Build 0)  -->
<svg version="1.1" id="Layer_1" xmlns="http://www.w3.org/2000/svg" xmlns:xlink="http://www.w3.org/1999/xlink" x="0px" y="0px"
	 viewBox="0 0 14 14" style="enable-background:new 0 0 14 14;" xml:space="preserve">
<style type="text/css">
	.st0{fill:#5000CE;}
</style>
<g>
	<path class="st0" d="M4.4,5C4.6,5,4.9,5,5,4.8v0.1C5,5,5,5,5,5.1L4.7,5.9C4.6,6,4.6,6.2,4.6,6.3v3.3H5V6.3c0-0.1,0-0.2,0-0.2
		l0.3-0.8C5.5,5.1,5.5,5,5.5,4.9v-4c0-0.4-0.3-0.7-0.7-0.7c-0.2,0-0.3,0.1-0.4,0.2C4.3,0.3,4.1,0.3,4,0.3c-0.2,0-0.3,0.1-0.4,0.2
		C3.4,0.3,3.3,0.3,3.1,0.3c-0.2,0-0.3,0.1-0.4,0.2C2.5,0.3,2.4,0.3,2.2,0.3c-0.4,0-0.7,0.3-0.7,0.7v0.4H0.9C0.5,1.3,0.3,1.6,0.3,2
		v2.6c0,0.2,0.1,0.4,0.2,0.6L1,6c0.1,0.1,0.1,0.2,0.1,0.4v3.2h0.4V6.4c0-0.2-0.1-0.4-0.2-0.6L0.8,4.9C0.7,4.8,0.7,4.7,0.7,4.6V2
		c0-0.1,0.1-0.2,0.2-0.2h2.8c0,0.4-0.3,0.7-0.7,0.7H1.6v0.7c0,0.1,0,0.1,0,0.2c0,0.1,0,0.2,0,0.3V4C1.6,4.6,2.1,5,2.6,5H4.4z
		 M4.8,0.7C4.9,0.7,5,0.8,5,0.9v2.2c0,0.1-0.1,0.2-0.2,0.2S4.6,3.2,4.6,3.1V0.9C4.6,0.8,4.7,0.7,4.8,0.7z M3.1,0.7
		c0.1,0,0.2,0.1,0.2,0.2v0.4H2.9V0.9C2.9,0.8,3,0.7,3.1,0.7z M2,0.9c0-0.1,0.1-0.2,0.2-0.2c0.1,0,0.2,0.1,0.2,0.2v0.4H2V0.9z
		 M4.2,1.8c0-0.2-0.2-0.4-0.4-0.4V0.9c0-0.1,0.1-0.2,0.2-0.2c0.1,0,0.2,0.1,0.2,0.2v2.2c0,0.1-0.1,0.2-0.2,0.2
		c-0.1,0-0.2-0.1-0.2-0.2V2.6h0C4,2.5,4.2,2.1,4.2,1.8z M3.3,2.8v0.2c0,0.1-0.1,0.2-0.2,0.2C3,3.3,2.9,3.2,2.9,3.1V2.9h0.2
		C3.2,2.9,3.2,2.9,3.3,2.8z M2.4,3.1c0,0.1-0.1,0.2-0.2,0.2C2.1,3.3,2,3.2,2,3.1V2.9h0.4V3.1z M2,4V3.7c0.1,0,0.1,0,0.2,0
		c0.2,0,0.3-0.1,0.4-0.2c0.1,0.1,0.3,0.2,0.4,0.2c0.2,0,0.3-0.1,0.4-0.2C3.6,3.7,3.8,3.7,4,3.7c0.2,0,0.3-0.1,0.4-0.2
		c0.1,0.1,0.3,0.2,0.4,0.2c0.1,0,0.1,0,0.2,0V4c0,0.4-0.3,0.7-0.7,0.7H2.6C2.3,4.6,2,4.3,2,4z"/>
	<path class="st0" d="M13.7,5c0-1.3-1.1-2.4-2.4-2.4c-0.6,0-1.1,0.2-1.5,0.6c-0.4-0.4-1-0.6-1.5-0.6C7,2.6,5.9,3.7,5.9,5
		c0,0.6,0.2,1.2,0.7,1.7l3,3v0.5c0,1.7-1.4,3.2-3.2,3.2s-3.2-1.4-3.2-3.2V7.7h0.9V6.3H2v1.3h0.9v2.5c0,2,1.6,3.6,3.6,3.6
		s3.6-1.6,3.6-3.6V9.7l3-3C13.5,6.2,13.7,5.7,13.7,5z M2.4,6.8h1.3v0.4H2.4V6.8z M9.8,9.3L6.9,6.4C6.5,6,6.3,5.5,6.3,5
		c0-1.1,0.9-1.9,1.9-1.9c0.5,0,1,0.2,1.4,0.6l0.2,0.2L10,3.7c0.4-0.4,0.9-0.6,1.4-0.6c1.1,0,1.9,0.9,1.9,1.9c0,0.5-0.2,1-0.6,1.4
		L9.8,9.3z"/>
	<path class="st0" d="M12.4,3.9l-0.3,0.3c0.2,0.2,0.4,0.5,0.4,0.8c0,0.3-0.1,0.6-0.3,0.8l0.3,0.3c0.3-0.3,0.4-0.7,0.4-1.1
		C12.9,4.6,12.7,4.2,12.4,3.9z"/>
	<path class="st0" d="M11.4,4c0.1,0,0.3,0,0.4,0.1l0.2-0.4c-0.2-0.1-0.4-0.1-0.5-0.1V4z"/>
	<path class="st0" d="M10.5,4.2H9.2v1.1H8.1v1.3h1.1v1.1h1.3V6.6h1.1V5.3h-1.1V4.2z M11.1,5.7v0.4H10v1.1H9.6V6.1H8.5V5.7h1.1V4.6
		H10v1.1H11.1z"/>
</g>
</svg>
