<?xml version="1.0" encoding="utf-8"?>
<!-- Generator: Adobe Illustrator 23.0.1, SVG Export Plug-In . SVG Version: 6.00 Build 0)  -->
<svg version="1.1" id="Layer_1" xmlns="http://www.w3.org/2000/svg" xmlns:xlink="http://www.w3.org/1999/xlink" x="0px" y="0px"
	 viewBox="0 0 18 18" style="enable-background:new 0 0 18 18;" xml:space="preserve">
<style type="text/css">
	.st0{fill:#7348F9;}
</style>
<g>
	<g id="ic_mapview">
		<path id="ic_google_map_blue" class="st0" d="M8.6,10.6L15,17H2.2L8.6,10.6z M15.7,8.3v8L9.3,10l1.2-1.2l-0.1-0.1
			c-0.1-0.3-0.3-0.5-0.5-0.7l-8.4,8.4v-13C1.6,3,1.7,2.9,1.9,2.8h7.6c1.2-1.9,3.8-2.4,5.7-1.2c1.1,0.8,1.8,2,1.8,3.4
			C16.9,6.3,16.5,7.4,15.7,8.3L15.7,8.3z M7.8,6.2H5.4V7h1.4C6.6,7.6,6.1,8,5.4,8C4.7,8,4,7.4,4,6.7c0,0,0-0.1,0-0.1
			c0-0.8,0.6-1.4,1.4-1.5c0,0,0.1,0,0.1,0c0.3,0,0.6,0.1,0.9,0.2l0.5-0.6C6.4,4.4,5.9,4.2,5.4,4.2c-1.3,0-2.3,1-2.3,2.3c0,0,0,0,0,0
			c0,1.3,1.1,2.3,2.3,2.3c1.3,0,2.3-1.1,2.3-2.3V6.2z M16,5.1C16,3.4,14.6,2,12.9,2S9.9,3.4,9.9,5.1c0,2.6,3,3.3,3,6.4h0.4
			C13.1,8.4,16,7.6,16,5.1L16,5.1z M12.9,3.7c-0.7,0-1.2,0.6-1.2,1.2s0.6,1.2,1.2,1.2s1.2-0.6,1.2-1.2C14.2,4.3,13.6,3.7,12.9,3.7z"
			/>
	</g>
</g>
</svg>
