<?xml version="1.0" encoding="utf-8"?>
<!-- Generator: Adobe Illustrator 23.0.2, SVG Export Plug-In . SVG Version: 6.00 Build 0)  -->
<svg version="1.1" id="Layer_1" xmlns="http://www.w3.org/2000/svg" xmlns:xlink="http://www.w3.org/1999/xlink" x="0px" y="0px"
	 viewBox="0 0 64.5 64.5" style="enable-background:new 0 0 64.5 64.5;" xml:space="preserve">
<style type="text/css">
	.st0{fill:#1024B2;}
</style>
<title>ic_stoppageVehc</title>
<g>
	<path class="st0" d="M62.8,54.8h-1.1V22.1c0-0.6-0.5-1.1-1.1-1.1H3.8c-0.6,0-1.1,0.5-1.1,1.1v32.7H1.7c-0.6,0-1.1,0.5-1.1,1.1V58
		c0,2.9,2.4,5.3,5.3,5.3h52.7c2.9,0,5.3-2.4,5.3-5.3v-2.1C63.8,55.3,63.4,54.8,62.8,54.8z M4.8,23.2h54.8v31.6h-19
		c-0.3,0-0.5,0.1-0.7,0.3l-1.8,1.8H26.3l-1.8-1.8c-0.2-0.2-0.5-0.3-0.7-0.3h-19V23.2z M61.7,58c0,1.7-1.4,3.2-3.2,3.2H5.9
		c-1.7,0-3.2-1.4-3.2-3.2v-1.1h20.6l1.8,1.8c0.2,0.2,0.5,0.3,0.7,0.3h12.6c0.3,0,0.5-0.1,0.7-0.3l1.8-1.8h20.6V58z"/>
	<path class="st0" d="M23.9,45.6L36.6,34l12.6,7.4l9.3-9.3v-7.7H5.9v24.3l10.6-8.2L23.9,45.6z M8,44.2V26.3h48.5v4.8l-7.6,7.6
		l-12.6-7.3L23.7,42.9l-7.3-5.2L8,44.2z"/>
	<path class="st0" d="M15.4,20c0.6,0,1.1-0.5,1.1-1.1v-2.3l3.7-0.6c0.4-0.1,0.8-0.4,0.9-0.8c0.3-1.2,0.8-2.4,1.4-3.5
		c0.2-0.4,0.2-0.8,0-1.2l-2.2-3l1.7-1.7l3,2.2c0.3,0.2,0.8,0.3,1.2,0c1.1-0.7,2.3-1.2,3.5-1.4c0.4-0.1,0.7-0.4,0.8-0.9L31,2.1h2.4
		l0.6,3.7c0.1,0.4,0.4,0.8,0.8,0.9c1.2,0.3,2.4,0.8,3.5,1.4c0.4,0.2,0.8,0.2,1.2,0l3-2.2l1.7,1.7l-2.2,3c-0.2,0.3-0.3,0.8,0,1.2
		c0.7,1.1,1.2,2.3,1.4,3.5c0.1,0.4,0.4,0.7,0.9,0.8l3.7,0.6V19c0,0.6,0.5,1.1,1.1,1.1s1.1-0.5,1.1-1.1v-3.2c0-0.5-0.4-1-0.9-1
		l-3.9-0.6c-0.3-1-0.7-1.9-1.2-2.8l2.3-3.2c0.3-0.4,0.3-1-0.1-1.4l-3-3C43,3.4,42.5,3.3,42,3.6l-3.2,2.3C38,5.4,37,5,36,4.7
		l-0.6-3.9c-0.1-0.5-0.5-0.9-1-0.9h-4.2c-0.5,0-1,0.4-1,0.9l-0.6,3.9c-1,0.3-1.9,0.7-2.8,1.2l-3.2-2.3c-0.4-0.3-1-0.3-1.4,0.1l-3,3
		c-0.4,0.4-0.4,0.9-0.1,1.4l2.3,3.2c-0.5,0.9-0.9,1.9-1.2,2.8l-3.9,0.6c-0.5,0.1-0.9,0.5-0.9,1V19C14.3,19.5,14.8,20,15.4,20z"/>
	<path class="st0" d="M38.5,17.9c0,0.6,0.5,1.1,1.1,1.1s1.1-0.5,1.1-1.1c0-4.7-3.8-8.4-8.4-8.4s-8.4,3.8-8.4,8.4
		c0,0.6,0.5,1.1,1.1,1.1c0.6,0,1.1-0.5,1.1-1.1c0-3.5,2.8-6.3,6.3-6.3S38.5,14.4,38.5,17.9z"/>
	<path class="st0" d="M28,17.9c0,0.6,0.5,1.1,1.1,1.1c0.6,0,1.1-0.5,1.1-1.1c0-1.2,0.9-2.1,2.1-2.1c1.2,0,2.1,0.9,2.1,2.1
		c0,0.6,0.5,1.1,1.1,1.1s1.1-0.5,1.1-1.1c0-2.3-1.9-4.2-4.2-4.2S28,15.6,28,17.9z"/>
	<polygon class="st0" points="58.6,52.7 58.6,51.6 58.6,35.8 56.5,35.8 56.5,51.6 54.4,51.6 54.4,40 52.2,40 52.2,51.6 50.1,51.6 
		50.1,43.2 48,43.2 48,51.6 45.9,51.6 45.9,41.1 43.8,41.1 43.8,51.6 41.7,51.6 41.7,39 39.6,39 39.6,51.6 37.5,51.6 37.5,36.9 
		35.4,36.9 35.4,51.6 33.3,51.6 33.3,41.1 31.2,41.1 31.2,51.6 29.1,51.6 29.1,45.3 27,45.3 27,51.6 24.9,51.6 24.9,47.4 22.7,47.4 
		22.7,51.6 20.6,51.6 20.6,45.3 18.5,45.3 18.5,51.6 16.4,51.6 16.4,44.3 14.3,44.3 14.3,51.6 12.2,51.6 12.2,47.4 10.1,47.4 
		10.1,51.6 8,51.6 8,50.6 5.9,50.6 5.9,51.6 5.9,52.7 5.9,53.7 58.6,53.7 	"/>
</g>
</svg>
