<?xml version="1.0" encoding="utf-8"?>
<!-- Generator: Adobe Illustrator 23.0.2, SVG Export Plug-In . SVG Version: 6.00 Build 0)  -->
<svg version="1.1" id="Layer_1" xmlns="http://www.w3.org/2000/svg" xmlns:xlink="http://www.w3.org/1999/xlink" x="0px" y="0px"
	 viewBox="0 0 14 14" style="enable-background:new 0 0 14 14;" xml:space="preserve">
<style type="text/css">
	.st0{fill:#5000CE;}
</style>
<g>
	<g>
		<path class="st0" d="M11.8,4.1c0.5-0.5,0.5-1.2,0-1.7c-0.5-0.5-1.2-0.5-1.6,0c-0.5,0.5-0.5,1.2,0,1.7C10.6,4.5,11.3,4.5,11.8,4.1z
			 M9.1,7.2h1.6c0.2,0.1,0.4,0.1,0.6-0.1l1.6-1.6c0,0,0,0,0-0.1c0,0,0.1-0.1,0.1-0.1c1.2-1.2,1.2-3.1,0-4.3c-1.2-1.2-3.1-1.2-4.3,0
			s-1.2,3.1,0,4.3c0,0,0.1,0.1,0.1,0.1c0,0,0,0,0,0.1l0.8,0.8H9.1v0C7.9,6.3,7,7.3,7,8.4c0,1.2,0.9,2.1,2.1,2.1H11
			c0.6,0,1.2,0.5,1.2,1.2c0,0.6-0.5,1.2-1.2,1.2H4.2L5,12c0,0,0,0,0-0.1c0,0,0.1-0.1,0.1-0.1c1.2-1.2,1.2-3.1,0-4.3
			C4,6.4,2.1,6.4,0.9,7.6s-1.2,3.1,0,4.3c0,0,0.1,0.1,0.1,0.1c0,0,0,0,0,0.1l1.6,1.6c0.1,0.1,0.3,0.2,0.5,0.1H11v0
			c1.1,0,2.1-0.9,2.1-2.1c0-1.1-0.9-2.1-2-2.1v0l-2,0C8.4,9.5,7.9,9,7.9,8.4C7.9,7.8,8.5,7.2,9.1,7.2z M9.5,4.7L9.5,4.7
			C9.5,4.7,9.5,4.7,9.5,4.7c-0.8-0.8-0.8-2.1,0-3c0.8-0.8,2.1-0.8,3,0c0.8,0.8,0.8,2.1,0,3c0,0,0,0,0,0l0,0L11,6.2
			C11,6.2,9.5,4.7,9.5,4.7z M3,12.7l-1.5-1.5v0c0,0,0,0,0,0c-0.8-0.8-0.8-2.1,0-3c0.8-0.8,2.1-0.8,3,0c0.8,0.8,0.8,2.1,0,3
			c0,0,0,0,0,0l0,0C4.5,11.2,3,12.7,3,12.7z M2.2,9c-0.5,0.5-0.5,1.2,0,1.7c0.5,0.5,1.2,0.5,1.6,0c0.5-0.5,0.5-1.2,0-1.7
			C3.4,8.5,2.7,8.5,2.2,9z"/>
	</g>
</g>
</svg>
