<?xml version="1.0" encoding="utf-8"?>
<!-- Generator: Adobe Illustrator 23.0.1, SVG Export Plug-In . SVG Version: 6.00 Build 0)  -->
<svg version="1.1" id="Layer_1" xmlns="http://www.w3.org/2000/svg" xmlns:xlink="http://www.w3.org/1999/xlink" x="0px" y="0px"
	 viewBox="0 0 18 18" style="enable-background:new 0 0 18 18;" xml:space="preserve">
<style type="text/css">
	.st0{fill:#3E00FF;}
</style>
<g>
	<g id="ic_TripManagement">
		<g id="Path_12" transform="translate(12.649 7.587)">
			<path id="Path_19" class="st0" d="M0,0h2.4v1.4H0V0z"/>
			<path id="Path_20" class="st0" d="M0,0h2.4v1.4H0V0z"/>
		</g>
		<g id="Path_11" transform="translate(12.649 10.425)">
			<path id="Path_21" class="st0" d="M0,0h3.7v1.4H0V0z"/>
			<path id="Path_22" class="st0" d="M0,0h3.7v1.4H0V0z"/>
		</g>
		<g id="Path_10" transform="translate(12.649 13.263)">
			<path id="Path_23" class="st0" d="M0,0h4.8v1.4H0V0z"/>
			<path id="Path_24" class="st0" d="M0,0h4.8v1.4H0V0z"/>
		</g>
		<g id="Group_2" transform="translate(0.7 2)">
			<path id="Path_1" class="st0" d="M10.8,3.5h1c0.2,0,0.3-0.1,0.3-0.3l0.1-0.9c0-0.1,0.1-0.2,0.3-0.2c0.1,0,0.2,0.1,0.2,0.3
				c0,0,0,0,0,0l-0.1,0.9C12.5,3.7,12.2,4,11.8,4h-1"/>
			<path id="Path_2" class="st0" d="M2,4H1C0.6,4,0.2,3.7,0.2,3.4L0,2.5c0-0.1,0.1-0.3,0.2-0.3c0.1,0,0.3,0.1,0.3,0.2l0,0l0.1,0.9
				c0,0.2,0.2,0.3,0.3,0.3h1"/>
			<path id="Subtraction_2" class="st0" d="M5.2,13.2H3.8c-1,0-1.9-0.8-2.1-1.8C1.5,9.9,1.4,8.2,1.4,6.6c0-1.6,0.1-3.2,0.4-4.8
				C2,0.8,2.8,0,3.8,0h5c1,0,1.9,0.8,2.1,1.8c0.3,1.6,0.4,3.2,0.4,4.8c0,1.6-0.1,3.2-0.4,4.8c-0.2,1-1.1,1.7-2.1,1.8H7.6V11h0.3
				v-0.8c0-0.9-0.7-1.6-1.6-1.6c-0.9,0-1.6,0.7-1.6,1.6V11h0.3L5.2,13.2L5.2,13.2z M9.3,6.6c-0.5,0-1,0.4-1,1c0,0.5,0.4,1,1,1
				c0.5,0,1-0.4,1-1C10.3,7,9.8,6.6,9.3,6.6L9.3,6.6z M3.4,6.6c-0.5,0-1,0.4-1,1c0,0.5,0.4,1,1,1c0.5,0,1-0.4,1-1
				C4.4,7,3.9,6.6,3.4,6.6L3.4,6.6z M8.8,1v4.7h1.5c0-1.2-0.1-2.5-0.3-3.7C9.9,1.4,9.4,1,8.8,1L8.8,1z M4.4,1v4.7h3.9V1H4.4z M3.8,1
				c-0.5,0-1,0.4-1.1,1C2.5,3.2,2.4,4.4,2.4,5.6h1.5L3.8,1L3.8,1z"/>
			<path id="Path_6" class="st0" d="M5.4,10.7v3.1c0,0.6,0.4,1,0.9,1.1c0.6,0,1-0.4,1.1-0.9c0-0.1,0-0.1,0-0.2v-3.1H5.4z"/>
		</g>
	</g>
</g>
</svg>
