<?xml version="1.0" encoding="utf-8"?>
<!-- Generator: Adobe Illustrator 23.0.1, SVG Export Plug-In . SVG Version: 6.00 Build 0)  -->
<svg version="1.1" id="Layer_1" xmlns="http://www.w3.org/2000/svg" xmlns:xlink="http://www.w3.org/1999/xlink" x="0px" y="0px"
	 viewBox="0 0 14 14" style="enable-background:new 0 0 14 14;" xml:space="preserve">
<style type="text/css">
	.st0{fill:#6742C0;}
</style>
<g>
	<g>
		<g id="ic_tripdetails">
			<g id="Livello_110" transform="translate(-15.479 -4.528)">
				<path id="Path_1" class="st0" d="M27.3,9.1c0,0.7-0.6,1.5-1.4,1.5s-1.5-0.6-1.5-1.4s0.6-1.5,1.4-1.5l0,0
					C26.6,7.7,27.3,8.3,27.3,9.1 M28.7,9.1c0-1.6-1.3-2.9-2.9-2.9c-1.6,0-2.9,1.3-2.9,2.9c0,0.6,0.2,1.3,0.6,1.8l2.2,3.2l2.2-3.2
					c0.1-0.1,0.1-0.2,0.2-0.3l0,0l0,0C28.6,10.1,28.7,9.6,28.7,9.1"/>
			</g>
			<g id="Path_7" transform="translate(1 4.5)">
				<path class="st0" d="M-0.3-0.1h5.2v1.1h-5.2V-0.1z"/>
				<path class="st0" d="M-0.3-0.1h5.2v1.1h-5.2V-0.1z"/>
			</g>
			<g id="Path_9" transform="translate(1 7.5)">
				<path class="st0" d="M-0.3,0h6.8v1.1h-6.8V0z"/>
				<path class="st0" d="M-0.3,0h6.8v1.1h-6.8V0z"/>
			</g>
			<g id="Path_8" transform="translate(6 10.5)">
				<path class="st0" d="M-5.3,0.2H7.3v1.1H-5.3V0.2z"/>
				<path class="st0" d="M-5.3,0.2H7.3v1.1H-5.3V0.2z"/>
			</g>
		</g>
	</g>
</g>
</svg>
