<?xml version="1.0" encoding="utf-8"?>
<!-- Generator: Adobe Illustrator 23.0.2, SVG Export Plug-In . SVG Version: 6.00 Build 0)  -->
<svg version="1.1" id="Layer_1" xmlns="http://www.w3.org/2000/svg" xmlns:xlink="http://www.w3.org/1999/xlink" x="0px" y="0px"
	 viewBox="0 0 64.5 64.5" style="enable-background:new 0 0 64.5 64.5;" xml:space="preserve">
<style type="text/css">
	.st0{fill:#1024B2;}
</style>
<title>ic_stoppageVehc</title>
<g>
	<path class="st0" d="M54.7,48c0.4,0,0.8,0,1.1,0c4.2,0,7.8,2.8,8.6,6.7c0.2,0.7-0.4,1.5-1.1,1.6c-0.1,0-0.2,0-0.3,0H51.3"/>
	<path class="st0" d="M8.7,54.9c-1.7,0-3.1,1.3-3.1,3c0,1.6,1.4,3,3.1,3c1.7,0,3.1-1.3,3.1-3C11.9,56.3,10.5,54.9,8.7,54.9z
		 M8.7,58.9c-0.6,0-1.1-0.5-1.1-1s0.5-1,1.1-1s1.1,0.5,1.1,1S9.3,58.9,8.7,58.9z"/>
	<rect x="31.7" y="51.7" class="st0" width="8.1" height="2.6"/>
	<path class="st0" d="M38.7,42.9h-8.1v-3.5h8.1c1.2,0,2.2,0.8,2.2,1.7l0,0C40.9,42,40,42.8,38.7,42.9C38.7,42.9,38.7,42.9,38.7,42.9
		z"/>
	<path class="st0" d="M58.1,48.2h1.8c0.8,0,1.4-0.6,1.4-1.3c0,0,0,0,0,0v-2.6c0-0.7-0.6-1.3-1.4-1.3h0h-1.8c-1.5,0-2.8,1.2-2.8,2.7
		l0,0l0,0C55.3,47,56.6,48.2,58.1,48.2L58.1,48.2z"/>
	<path class="st0" d="M56.5,18.6c0.1-0.4-0.2-0.8-0.6-0.9c-0.1,0-0.1,0-0.2,0H45.3c0,1.4-0.2,2.8-0.7,4.1h0.2v13.5l5.5,1.1l5.3-1.1
		c-0.6-4.8-2.2-9.3-4.7-13.5h1.3C54.2,21.8,56,20.5,56.5,18.6z M53.1,32.1c0,0,0,0.1,0,0.1c0,0.4-0.4,0.8-0.8,0.7h-4.8
		c-0.4,0-0.8-0.3-0.8-0.8V25c0,0,0,0,0,0c0-0.4,0.4-0.8,0.8-0.8h2c0.3,0,0.6,0.2,0.7,0.4C51.7,27,52.6,29.5,53.1,32.1z"/>
	<path class="st0" d="M56.2,48h-0.3c-0.4,0-0.8,0-1.1,0l-3.5,8.3H53C54.4,53.6,55.5,50.9,56.2,48z"/>
	<path class="st0" d="M21.4,41.7c-1-1.9-3.1-3.2-5.4-3.1H1.8v3.2L21.4,41.7z"/>
	<path class="st0" d="M55.6,35.3H44.8v17.2H22V44c-0.1-3.1-2.7-5.5-5.9-5.5H1.8v17.7h49.5c3.1-5.2,4.7-11,4.7-16.9
		C55.9,38,55.8,36.7,55.6,35.3z M50.1,39.9c-0.1,0-0.2,0-0.2,0h-1.3c-0.6,0.1-1.2-0.4-1.2-0.9c-0.1-0.6,0.4-1.1,1-1.2
		c0.1,0,0.2,0,0.2,0h1.3c0.6-0.1,1.2,0.4,1.2,0.9C51.1,39.3,50.7,39.9,50.1,39.9z"/>
	<path class="st0" d="M1,56.3c-0.5,0-1-0.4-1-0.9c0,0,0-0.1,0-0.1c0.5-4.6,4.9-7.9,9.7-7.4c4.5,0.5,7.9,4.1,7.8,8.4H1z"/>
	<ellipse class="st0" cx="31.7" cy="63.9" rx="27.7" ry="0.6"/>
	<path class="st0" d="M30.8,35.4c-0.4,0-0.8,0-1.2,0v17.2h2.2V35.3C31.4,35.3,31.1,35.4,30.8,35.4z"/>
	<path class="st0" d="M48.4,37.8h1.6c0.5,0,0.9,0.3,1,0.8h4.9c0-1.1-0.1-2.2-0.2-3.2H44.9v3.2h2.5C47.5,38.2,47.9,37.8,48.4,37.8z"
		/>
	<path class="st0" d="M8.7,53.1c-2.8,0-5.1,2.2-5.1,4.9c0,2.7,2.3,4.9,5.1,4.9s5.1-2.2,5.1-4.9C13.9,55.2,11.6,53.1,8.7,53.1z
		 M8.8,58.9c-0.6,0-1.1-0.5-1.1-1s0.5-1,1.1-1s1.1,0.5,1.1,1S9.4,58.9,8.8,58.9z"/>
	<path class="st0" d="M55.9,53.1c-2.8,0-5.1,2.2-5.1,4.9c0,2.7,2.3,4.9,5.1,4.9s5.1-2.2,5.1-4.9C61.1,55.2,58.8,53.1,55.9,53.1z
		 M56,58.9c-0.6,0-1.1-0.5-1.1-1s0.5-1,1.1-1s1.1,0.5,1.1,1S56.6,58.9,56,58.9z"/>
	<g>
		<g>
			<path class="st0" d="M30.8,0C24,0.2,18.2,5.5,17.6,12.3c-0.1,1.4-0.1,2.7,0.2,3.9l0,0c0,0,0,0.1,0.1,0.4c0.2,0.9,0.5,1.8,0.9,2.7
				c1.4,3.2,4.6,8.7,11.7,14.5c0.4,0.4,1.1,0.4,1.5,0c7.2-5.9,10.4-11.3,11.8-14.6c0.4-0.9,0.7-1.8,0.9-2.7c0.1-0.3,0.1-0.4,0.1-0.4
				l0,0c0.2-0.8,0.2-1.7,0.2-2.6C45.1,5.9,38.7-0.3,30.8,0z M31.3,20.4c-3.7,0-6.7-3-6.7-6.6s3-6.6,6.7-6.6s6.7,3,6.7,6.6
				S35,20.4,31.3,20.4z"/>
		</g>
	</g>
	<path class="st0" d="M6.5,38.9c0,0-0.7-9.3,0-14.7c0.7-5.3,10.7-5.4,10.7-5.4h0c0-0.4-0.1-0.8-0.1-1.2h-5.5c-5.4,0-9.9,4.2-9.9,9.4
		v11.8c0,2.7,2.3,4.9,5.2,4.9c1.4,0,2.8-0.6,3.7-1.5l1.1-1.1L6.5,38.9z"/>
	<path class="st0" d="M31.7,44.9v7.7h8.1v-7.7H31.7z M37.7,49.8c0,0.4-0.4,0.8-0.8,0.8h-2.1c-0.5,0-0.8-0.4-0.8-0.8v-2
		c0-0.4,0.4-0.8,0.8-0.8h2.1c0.5,0,0.8,0.4,0.8,0.8V49.8z"/>
</g>
</svg>
