<?xml version="1.0" encoding="utf-8"?>
<!-- Generator: Adobe Illustrator 23.0.2, SVG Export Plug-In . SVG Version: 6.00 Build 0)  -->
<svg version="1.1" id="Layer_1" xmlns="http://www.w3.org/2000/svg" xmlns:xlink="http://www.w3.org/1999/xlink" x="0px" y="0px"
	 viewBox="0 0 14 14" style="enable-background:new 0 0 14 14;" xml:space="preserve">
<style type="text/css">
	.st0{fill:#000BDD;}
</style>
<g>
	<g>
		<path class="st0" d="M1.2,10.7c-0.5,0-1,0.4-1,1c0,0.5,0.5,1,1,1s1-0.5,1-1C2.1,11.2,1.7,10.7,1.2,10.7z"/>
		<path class="st0" d="M1.2,6c-0.5,0-1,0.4-1,1s0.5,1,1,1s1-0.4,1-1S1.7,6,1.2,6z"/>
		<path class="st0" d="M4.7,3.2h8.3c0.5,0,0.9-0.4,0.9-0.9s-0.4-0.9-0.9-0.9H4.7c-0.5,0-0.9,0.4-0.9,0.9S4.2,3.2,4.7,3.2z"/>
		<path class="st0" d="M1.2,1.3c-0.5,0-1,0.5-1,1s0.5,1,1,1s1-0.4,1-1S1.7,1.3,1.2,1.3z"/>
		<path class="st0" d="M12.9,6.1H4.7C4.2,6.1,3.7,6.5,3.7,7s0.4,0.9,0.9,0.9h8.3c0.5,0,0.9-0.4,0.9-0.9S13.4,6.1,12.9,6.1z"/>
		<path class="st0" d="M12.9,10.8H4.7c-0.5,0-0.9,0.4-0.9,0.9c0,0.5,0.4,0.9,0.9,0.9h8.3c0.5,0,0.9-0.4,0.9-0.9
			C13.8,11.2,13.4,10.8,12.9,10.8z"/>
	</g>
</g>
</svg>
