<?xml version="1.0" encoding="utf-8"?>
<!-- Generator: Adobe Illustrator 23.0.2, SVG Export Plug-In . SVG Version: 6.00 Build 0)  -->
<svg version="1.1" id="Layer_1" xmlns="http://www.w3.org/2000/svg" xmlns:xlink="http://www.w3.org/1999/xlink" x="0px" y="0px"
	 viewBox="0 0 32 32" style="enable-background:new 0 0 32 32;" xml:space="preserve">
<style type="text/css">
	.st0{fill:#0524C1;}
</style>
<g>
	<path class="st0" d="M16,20.8c-1.1,0-1.9,0.9-1.9,1.9c0,1.1,0.9,1.9,1.9,1.9c1.1,0,1.9-0.9,1.9-1.9C17.9,21.7,17.1,20.8,16,20.8z"
		/>
	<path class="st0" d="M16,0.7C7.5,0.7,0.7,7.5,0.7,16c0,8.5,6.9,15.3,15.3,15.3c8.5,0,15.3-6.9,15.3-15.3C31.3,7.5,24.5,0.7,16,0.7z
		 M16,28.5C9.1,28.5,3.5,22.9,3.5,16S9.1,3.5,16,3.5S28.5,9.1,28.5,16S22.9,28.5,16,28.5z"/>
	<path class="st0" d="M16,7.4c-1.1,0-1.9,0.6-1.9,1.5v8.5c0,0.9,0.8,1.5,1.9,1.5c1.1,0,1.9-0.6,1.9-1.5V8.9C17.9,8,17.1,7.4,16,7.4z
		"/>
</g>
</svg>
