<svg xmlns="http://www.w3.org/2000/svg" xmlns:xlink="http://www.w3.org/1999/xlink" width="32" height="32" viewBox="0 0 32 32">
  <defs>
    <clipPath id="clip-ic_EmergencyMonitoring">
      <rect width="32" height="32"/>
    </clipPath>
  </defs>
  <g id="ic_EmergencyMonitoring" clip-path="url(#clip-ic_EmergencyMonitoring)">
    <g id="Group_192" data-name="Group 192" transform="translate(-3.828 -3.087)">
      <path id="Path_156" data-name="Path 156" d="M.879,7.031a.878.878,0,0,0,.879-.879V1.758H6.211A.879.879,0,1,0,6.211,0H.879A.879.879,0,0,0,0,.879V6.152A.879.879,0,0,0,.879,7.031Zm0,0" transform="translate(4.828 5.887)" fill="#c1c1c1"/>
      <path id="Path_157" data-name="Path 157" d="M397.211,0h-5.332a.879.879,0,1,0,0,1.758h4.453V6.152a.879.879,0,1,0,1.758,0V.879A.879.879,0,0,0,397.211,0Zm0,0" transform="translate(-363.262 5.887)" fill="#c1c1c1"/>
      <path id="Path_158" data-name="Path 158" d="M7.09,336.152a.878.878,0,0,0-.879-.879H1.758v-4.395a.879.879,0,0,0-1.758,0v5.273a.879.879,0,0,0,.879.879H6.211A.878.878,0,0,0,7.09,336.152Zm0,0" transform="translate(4.828 -304.778)" fill="#c1c1c1"/>
      <path id="Path_159" data-name="Path 159" d="M397.211,330a.878.878,0,0,0-.879.879v4.395h-4.453a.879.879,0,1,0,0,1.758h5.332a.879.879,0,0,0,.879-.879v-5.273A.878.878,0,0,0,397.211,330Zm0,0" transform="translate(-363.262 -304.778)" fill="#c1c1c1"/>
      <path id="Path_162" data-name="Path 162" d="M42.695,272.685A4.692,4.692,0,0,1,38.468,270H32.7c1.893,2.067,5.642,5.37,9.992,5.37s8.1-3.3,9.992-5.37H46.922A4.692,4.692,0,0,1,42.695,272.685Zm0,0" transform="translate(-22.867 -248.916)" fill="#c1c1c1"/>
      <path id="Path_163" data-name="Path 163" d="M184.356,150a3.355,3.355,0,0,0-3.288,4.027h1.4a1.992,1.992,0,0,1-.124-.671,2.014,2.014,0,1,1,4.027,0,1.992,1.992,0,0,1-.124.671h1.4A3.355,3.355,0,0,0,184.356,150Zm0,0" transform="translate(-164.528 -134.286)" fill="#c1c1c1"/>
      <path id="Path_164" data-name="Path 164" d="M22.788,66.994C22.574,66.712,17.656,60,11.454,60S.335,66.712.12,66.994a.687.687,0,0,0,0,.779c.027.04.107.161.255.349a.729.729,0,0,1,.3-.067H6.824a4.644,4.644,0,0,1-.068-.671,4.7,4.7,0,1,1,9.4,0,4.644,4.644,0,0,1-.068.671h6.153a.729.729,0,0,1,.3.067c.148-.188.228-.309.255-.349A.687.687,0,0,0,22.788,66.994Zm0,0" transform="translate(8.373 -48.313)" fill="#c1c1c1"/>
      <path id="Path_165" data-name="Path 165" d="M199.051,271.342A3.342,3.342,0,0,0,201.718,270h-5.335A3.342,3.342,0,0,0,199.051,271.342Zm0,0" transform="translate(-179.223 -248.916)" fill="#c1c1c1"/>
      <path id="Path_166" data-name="Path 166" d="M242.342,210.671a.671.671,0,1,0-.671.671A.672.672,0,0,0,242.342,210.671Zm0,0" transform="translate(-221.844 -191.601)" fill="#c1c1c1"/>
    </g>
  </g>
</svg>
