<?xml version="1.0" encoding="utf-8"?>
<!-- Generator: Adobe Illustrator 23.0.1, SVG Export Plug-In . SVG Version: 6.00 Build 0)  -->
<svg version="1.1" id="Layer_1" xmlns="http://www.w3.org/2000/svg" xmlns:xlink="http://www.w3.org/1999/xlink" x="0px" y="0px"
	 viewBox="0 0 18 18" style="enable-background:new 0 0 18 18;" xml:space="preserve">
<style type="text/css">
	.st0{fill:#4618D3;}
</style>
<path class="st0" d="M9,0C4,0,0,4,0,9s4,9,9,9s9-4,9-9S14,0,9,0z M14.3,9.4l-3.9,3.9c-0.1,0.1-0.3,0.2-0.4,0.2
	c-0.2,0-0.3-0.1-0.4-0.2L9.1,13C9,12.9,9,12.8,9,12.6c0-0.2,0.1-0.3,0.2-0.4l2.3-2.3H4.1c-0.3,0-0.6-0.3-0.6-0.6V8.7
	c0-0.3,0.3-0.6,0.6-0.6h7.3L9.1,5.8C9,5.7,9,5.6,9,5.4C9,5.2,9,5.1,9.1,5l0.4-0.4c0.1-0.1,0.3-0.2,0.4-0.2c0.2,0,0.3,0.1,0.4,0.2
	l3.9,3.9c0.1,0.1,0.2,0.3,0.2,0.4C14.5,9.2,14.4,9.3,14.3,9.4z"/>
</svg>
