<?xml version="1.0" encoding="utf-8"?>
<!-- Generator: Adobe Illustrator 23.0.1, SVG Export Plug-In . SVG Version: 6.00 Build 0)  -->
<svg version="1.1" id="Layer_1" xmlns="http://www.w3.org/2000/svg" xmlns:xlink="http://www.w3.org/1999/xlink" x="0px" y="0px"
	 viewBox="0 0 14 14" style="enable-background:new 0 0 14 14;" xml:space="preserve">
<style type="text/css">
	.st0{fill:#6742C0;}
</style>
<g id="ic_CommunicationDetails">
	<path id="Path_34" class="st0" d="M8.1,6c0.1,0,0.3-0.1,0.3-0.3c0-0.1-0.1-0.3-0.3-0.3C8,5.4,7.7,5.5,7.7,5.7l0,0
		C7.8,5.9,8,6,8.1,6z"/>
	<path id="Path_35" class="st0" d="M8.1,8c0.1,0,0.3-0.1,0.3-0.3c0-0.1-0.1-0.3-0.3-0.3C8,7.3,7.7,7.4,7.7,7.6l0,0
		C7.8,7.7,8,7.8,8.1,8z"/>
	<path id="Path_36" class="st0" d="M13.6,1.7h-2.3c-0.2,0-0.3,0.1-0.3,0.3c0,0.5-0.3,0.8-0.8,1C9.5,3,9.2,2.5,9.2,2
		c0.2-0.2,0.1-0.3-0.1-0.3H4.9C4.7,1.7,4.6,1.8,4.6,2c0,0.5-0.3,0.8-0.8,1C3.2,3,2.9,2.5,2.9,2c0.1-0.2,0-0.3-0.2-0.3H0.4
		C0.2,1.7,0.1,1.8,0.1,2v10c0,0.2,0.1,0.3,0.3,0.3h13.3c0.2,0,0.3-0.1,0.3-0.3V2C13.9,1.8,13.8,1.7,13.6,1.7z M13.4,11.7H0.6V2.3
		h1.8C2.5,3,3.1,3.5,3.8,3.6c0.6,0,1.3-0.5,1.3-1.3h3.8C9,3,9.5,3.5,10.2,3.6c0.6,0,1.3-0.5,1.3-1.3h1.9V11.7z"/>
	<path id="Path_37" class="st0" d="M5,7.6c0.5-0.5,0.6-1.4,0.1-1.9S3.7,5.1,3.2,5.6S2.5,7,3.1,7.5l0.1,0.1C2.3,8,1.9,8.8,1.9,9.7V10
		c0,0.1,0.1,0.3,0.3,0.3h3.7c0.1,0,0.3-0.1,0.3-0.3V9.7C6.1,8.8,5.7,8,5,7.6z M2.4,9.7C2.4,8.8,3.1,8.1,4,8s1.6,0.6,1.7,1.6v0.1H2.4
		z"/>
	<path id="Path_38" class="st0" d="M12,7.3H9.1C9,7.3,8.8,7.4,8.8,7.6C8.8,7.7,8.9,8,9.1,8H12c0.1,0,0.3-0.1,0.3-0.3
		C12.3,7.5,12.2,7.3,12,7.3L12,7.3z"/>
	<path id="Path_39" class="st0" d="M8.9,5.7C8.9,5.9,9,6,9.1,6H12c0.2,0,0.3-0.1,0.3-0.3S12.2,5.4,12,5.4l0,0H9.1
		C9,5.5,8.9,5.6,8.9,5.7L8.9,5.7z"/>
	<path id="Path_40" class="st0" d="M12,9.2H8.1C8,9.2,7.7,9.3,7.7,9.5c0,0.1,0.1,0.3,0.3,0.3H12c0.1,0,0.3-0.1,0.3-0.3
		C12.3,9.3,12.2,9.2,12,9.2L12,9.2z"/>
</g>
</svg>
