<?xml version="1.0" encoding="utf-8"?>
<!-- Generator: Adobe Illustrator 23.0.1, SVG Export Plug-In . SVG Version: 6.00 Build 0)  -->
<svg version="1.1" id="Layer_1" xmlns="http://www.w3.org/2000/svg" xmlns:xlink="http://www.w3.org/1999/xlink" x="0px" y="0px"
	 viewBox="0 0 18 18" style="enable-background:new 0 0 18 18;" xml:space="preserve">
<style type="text/css">
	.st0{fill:#541DFF;}
</style>
<g>
	<g id="ic_devicereport">
		<g id="ic_DeviceReport-2" transform="translate(1 1)">
			<g id="Group_14" transform="translate(0 0)">
				<g id="Group_13" transform="translate(0 11.154)">
					<path id="Path_23" class="st0" d="M15.9,0H0v4c0,0.5,0.4,0.8,0.8,0.9c0,0,0,0,0,0h14.2c0.5,0,0.8-0.4,0.9-0.8c0,0,0,0,0,0l0,0
						V0z M1.7,4.2c-0.6,0-1.1-0.5-1.1-1.1s0.5-1.1,1.1-1.1s1.1,0.5,1.1,1.1C2.8,3.7,2.3,4.2,1.7,4.2C1.7,4.2,1.7,4.2,1.7,4.2z
						 M7,3.4H3.6c-0.1,0-0.2-0.1-0.2-0.2s0.1-0.2,0.2-0.2H7c0.1,0,0.2,0.1,0.2,0.2C7.4,3.3,7.3,3.4,7,3.4z M9.1,3.8H8.5V2.7h0.6
						L9.1,3.8z M10.2,3.8H9.6V2.7h0.6L10.2,3.8z M11.3,3.8h-0.5V2.7h0.6L11.3,3.8z M12.5,3.8h-0.6V2.7h0.6L12.5,3.8z M13.6,3.8H13
						V2.7h0.6L13.6,3.8z M14.7,3.8h-0.6V2.7h0.6V3.8z"/>
					<path id="Path_27" class="st0" d="M2.3,3.1c0,0.3-0.2,0.6-0.5,0.6c0,0,0,0-0.1,0c-0.3,0-0.6-0.3-0.6-0.6s0.3-0.6,0.6-0.6
						c0,0,0,0,0,0C2,2.5,2.3,2.8,2.3,3.1C2.3,3.1,2.3,3.1,2.3,3.1z"/>
				</g>
				<g id="pie-chart_1_" transform="translate(3.063)">
					<path id="Path_28" class="st0" d="M7.5,4.8c0,0.5-0.1,1-0.5,1.5l1.6,1.6c1.5-1.8,1.5-4.4,0-6.2L7,3.4C7.4,3.8,7.6,4.3,7.5,4.8z
						"/>
					<path id="Path_29" class="st0" d="M6.3,7.1C5.1,8,3.4,7.6,2.5,6.4L2.2,5.3H0C0.3,8,2.7,10,5.3,9.7c0.9-0.1,1.8-0.5,2.5-1.1
						L6.3,7.1z"/>
					<path id="Path_30" class="st0" d="M2.2,4.4c0.3-1.5,1.7-2.4,3.2-2.2c0.4,0.1,0.7,0.3,1,0.5l1.6-1.6C5.8-0.6,2.8-0.3,1.1,1.8
						c0,0,0,0,0,0C0.5,2.5,0.1,3.4,0,4.4H2.2z"/>
				</g>
			</g>
		</g>
	</g>
</g>
</svg>
