<svg id="Layer_1" data-name="Layer 1" xmlns="http://www.w3.org/2000/svg" viewBox="0 0 18 18"><defs><style>.cls-1{fill:#c2c1c1;}.cls-2,.cls-3{fill:none;}.cls-3{stroke:#c2c1c1;stroke-width:0.5px;}</style></defs><title>ic_DeviceCommunicatoin2</title><g id="ic_DeviceManagement_2" data-name="ic DeviceManagement 2"><path id="Subtraction_1" data-name="Subtraction 1" class="cls-1" d="M16.41,16H1.49a.89.89,0,0,1-.89-.89V12.37H17.31v2.69A.91.91,0,0,1,16.41,16Zm-14-3a1.19,1.19,0,1,0,1.19,1.19A1.19,1.19,0,0,0,2.39,13Zm13.12.6h0v1.19h.6V13.57Zm-1.19,0h0v1.19h.6V13.57Zm-1.19,0h0v1.19h.59V13.57h-.59Zm-1.19,0v1.19h.59V13.57Zm-1.2,0v1.19h.6V13.57Zm-1.19,0h0v1.19h.6V13.57Zm-5.07.3a.29.29,0,0,0-.3.3h0a.3.3,0,0,0,.3.3H8.06a.31.31,0,0,0,.3-.3h0a.3.3,0,0,0-.3-.3H4.48Zm-2.09.9a.6.6,0,0,1-.6-.6h0a.6.6,0,0,1,.6-.6h0a.6.6,0,0,1,.6.6H3a.6.6,0,0,1-.6.59Zm14.85-3H.67l.9-4.07A.9.9,0,0,1,2.45,7h2.3a4.25,4.25,0,0,0,.12.6H2.39a.3.3,0,0,0-.3.3h0a.29.29,0,0,0,.3.3H5.08a4.25,4.25,0,0,0,7.8,0h.25a.29.29,0,0,0,.3-.3h0a.29.29,0,0,0-.09-.21.27.27,0,0,0-.21-.09h0A3.75,3.75,0,0,0,13.2,7h2.26a.89.89,0,0,1,.87.7l.9,4.07ZM14.32,7.61a.3.3,0,0,0-.3.3h0a.31.31,0,0,0,.3.3h1.2a.31.31,0,0,0,.3-.3h0a.3.3,0,0,0-.3-.3h-1.2Z"/><g id="Group_214" data-name="Group 214"><g id="Group_211" data-name="Group 211"><path id="Path_210" data-name="Path 210" class="cls-1" d="M11.58,5.73l-1.06-.84a.09.09,0,0,0-.14,0,.08.08,0,0,0,0,.06v.19a.1.1,0,0,1-.1.1H7.81a.1.1,0,0,0-.1.1h0V6.44a.1.1,0,0,0,.1.1h2.45a.1.1,0,0,1,.1.1h0v.17a.11.11,0,0,0,.11.1.09.09,0,0,0,.06,0l1.06-1a.1.1,0,0,0,0-.14Z"/></g><g id="Group_213" data-name="Group 213"><path id="Path_212" data-name="Path 212" class="cls-1" d="M6.35,7.27,7.4,6.43a.11.11,0,0,1,.14,0,.07.07,0,0,1,0,.06V6.7a.1.1,0,0,0,.1.1h2.45a.1.1,0,0,1,.1.1V8a.1.1,0,0,1-.1.1H7.66a.1.1,0,0,0-.1.1v.16a.09.09,0,0,1-.1.1l-.06,0-1.06-1a.1.1,0,0,1,0-.14Z"/></g></g><g id="Ellipse_21" data-name="Ellipse 21"><circle class="cls-2" cx="8.98" cy="6.5" r="4.5"/><circle class="cls-3" cx="8.98" cy="6.5" r="4.25"/></g></g></svg>