<?xml version="1.0" encoding="utf-8"?>
<!-- Generator: Adobe Illustrator 23.0.2, SVG Export Plug-In . SVG Version: 6.00 Build 0)  -->
<svg version="1.1" id="Layer_1" xmlns="http://www.w3.org/2000/svg" xmlns:xlink="http://www.w3.org/1999/xlink" x="0px" y="0px"
	 viewBox="0 0 14 14" style="enable-background:new 0 0 14 14;" xml:space="preserve">
<style type="text/css">
	.st0{fill:#000BDD;}
</style>
<g>
	<g>
		<path class="st0" d="M7,0C3.1,0,0,3.1,0,7s3.1,7,7,7s7-3.1,7-7S10.9,0,7,0z M10.3,5L9.7,5.7L8.3,4.3L7.8,4.9l1.4,1.4L5.8,9.5
			L4.5,8.2L4,8.7L5.3,10L5,10.4l0,0c0,0.1-0.1,0.1-0.2,0.1l-1.3,0.3c0,0,0,0-0.1,0c-0.1,0-0.1,0-0.2-0.1c-0.1-0.1-0.1-0.2-0.1-0.2
			l0.3-1.3c0-0.1,0.1-0.1,0.1-0.2l0,0L9,3.7c0.1-0.1,0.2-0.1,0.3,0l1.1,1.1C10.4,4.8,10.4,5,10.3,5z"/>
	</g>
</g>
</svg>
