<?xml version="1.0" encoding="utf-8"?>
<!-- Generator: Adobe Illustrator 23.0.1, SVG Export Plug-In . SVG Version: 6.00 Build 0)  -->
<svg version="1.1" id="Layer_1" xmlns="http://www.w3.org/2000/svg" xmlns:xlink="http://www.w3.org/1999/xlink" x="0px" y="0px"
	 viewBox="0 0 75 75" style="enable-background:new 0 0 75 75;" xml:space="preserve">
<style type="text/css">
	.st0{fill:none;stroke:#6742C0;stroke-width:0.2;}
	.st1{fill:none;}
	.st2{fill:none;stroke:#6742C0;stroke-width:1.3;}
	.st3{fill:#6742C0;}
</style>
<g>
	<g id="ic_Movement_Details_blue">
		<g id="Group_1" transform="translate(31.336 19.328)">
			<path id="Path_222" class="st0" d="M34.6,26.7c0,0,4.9,1.2,6.6,3.9s-0.8,2.2-0.8,2.2s-7-3.6-8.2-1.3"/>
			<path id="Path_223" class="st0" d="M25.7,1.5C25.4,2,27,9.1,27,9.1l0.7,3.5c0,0-0.1,1.4,1,1.2s2.5-0.6,2.5-0.6s1.1,0,0-2.3
				c-1-2.4-1.8-4.8-2.5-7.3C28.7,3.6,25.9,0.9,25.7,1.5z"/>
			<path id="Path_225" class="st0" d="M3.7,10.5H0.9c0,0-1.1-0.1-0.9,1.6s0,10.4,0,10.4c-0.2,0.6,0.1,1.2,0.7,1.4
				C0.9,24,1.1,24,1.3,24c0.8-0.1,1.6-0.1,2.4,0"/>
			<path id="Path_226" class="st0" d="M10.4,0.5c-0.5,0.6,0,28.6,0,28.6s-0.6,2.8,1.1,3s10.6,0,10.6,0s0.6-2.8,1.8-8.5
				c0.8-3.6,1-7.2,0.8-10.9L22.7,1.9c0,0,0-2-1.9-1.9s-9.3,0-9.3,0C11.1,0,10.7,0.2,10.4,0.5z"/>
			<path id="Path_227" class="st0" d="M24.8,19.2c0,0-2.7-5.4-7.4-5"/>
			<path id="Path_228" class="st0" d="M10.9,19.8h7.9"/>
			<path id="Path_229" class="st0" d="M17,19.8v12"/>
			<g id="Ellipse_100" transform="translate(31.245 33.986)">
				<ellipse class="st1" cx="4.7" cy="4.7" rx="4.7" ry="4.7"/>
				<ellipse class="st0" cx="4.7" cy="4.7" rx="4.6" ry="4.6"/>
			</g>
		</g>
		<g id="Ellipse_99" transform="translate(60.096 50.209)">
			<ellipse class="st1" cx="7.5" cy="7.5" rx="7.5" ry="7.5"/>
			<ellipse class="st2" cx="7.5" cy="7.5" rx="6.8" ry="6.8"/>
		</g>
		<g id="Ellipse_102" transform="translate(8.096 49.209)">
			<ellipse class="st1" cx="7.5" cy="7.5" rx="7.5" ry="7.5"/>
			<ellipse class="st2" cx="7.5" cy="7.5" rx="6.8" ry="6.8"/>
		</g>
		<path id="Subtraction_1" class="st2" d="M44.7,57.9c-7.9,0-16.7,0-16.8,0c-0.1,0-0.2,0-0.3,0c-0.6,0-2.1-0.3-2.7-2.6
			c-0.3-1.7-1-3.2-2-4.6l-1.5-1.6l-0.5-0.3V14.8h33.6c1,0,2,0.2,3,0.6c2,0.7,3.6,2.1,4.4,4.1c1.8,4.6,5.3,17,5.3,17.1
			c0.4,0.5,0.6,1.1,0.7,1.7c0.3,1.8,0,3.6-0.7,5.2C65.3,48,63,52.2,63,52.2l-1.2,3c-0.1,0.5-0.4,1-0.9,1.3c-0.8,0.6-2.6,1.3-6.2,1.3
			C52.7,57.9,49.3,57.9,44.7,57.9z"/>
		<path id="Path_222-2" class="st2" d="M65.9,46c0,0,4.9,1.2,6.6,3.9s-0.8,2.2-0.8,2.2s-7-3.6-8.2-1.3"/>
		<path id="Path_223-2" class="st2" d="M57,20.8c-0.3,0.6,1.4,7.7,1.4,7.7l0.7,3.5c0,0-0.1,1.4,1,1.2s2.5-0.6,2.5-0.6s1.1,0,0-2.3
			c-1-2.4-1.8-4.8-2.5-7.3C60,22.9,57.3,20.2,57,20.8z"/>
		<g id="Rectangle_270" transform="translate(60.096 37.789)">
			<path class="st1" d="M0.4,0h3.5c0.2,0,0.4,0.2,0.4,0.4v5.4c0,0.2-0.2,0.4-0.4,0.4H0.4C0.2,6.2,0,6,0,5.8V0.4C0,0.2,0.2,0,0.4,0z"
				/>
			<path class="st2" d="M0.9,0.7h2.5c0.1,0,0.3,0.1,0.3,0.3v4.4c0,0.1-0.1,0.3-0.3,0.3H0.9c-0.1,0-0.3-0.1-0.3-0.3V0.9
				C0.6,0.8,0.8,0.7,0.9,0.7z"/>
		</g>
		<path id="Subtraction_2" class="st2" d="M31.7,51c-0.6,0-1.3,0-1.9,0c-2.2-0.1-2.4-1.5-2.4-1.6c0,0-0.8-4.4-1.5-8.4
			c-0.5-2.5-2.1-4-5-4.4V21.2c1.2-0.9,2.6-1.5,4-1.7c0,0,3.2,0.1,5.9,0.1c1.6,0,2.7,0,3.2-0.1c0.1,0,0.2,0,0.3,0
			c0.4,0,0.7,0.1,1,0.4c0.2,0.4,0.3,1,0.2,1.5l-0.3,27.3c0,0,0-0.1,0-0.1c0,0.3,0,0.6,0,1c-0.1,1.3-1.7,1.6-1.7,1.6
			C33.4,51,32.8,51,31.7,51z"/>
		<path id="Path_225-2" class="st2" d="M35.1,29.8h-2.8c0,0-1.1-0.1-0.9,1.6s0,10.4,0,10.4c-0.2,0.6,0.1,1.2,0.7,1.4
			c0.2,0.1,0.4,0.1,0.6,0c0.8-0.1,1.6-0.1,2.4,0"/>
		<path id="Path_226-2" class="st2" d="M41.8,19.8c-0.5,0.6,0,28.6,0,28.6s-0.6,2.8,1.1,3s10.6,0,10.6,0s0.6-2.8,1.8-8.5
			c0.8-3.6,1-7.2,0.8-10.9l-1.9-10.8c0,0,0-2-1.9-1.9s-9.3,0-9.3,0C42.4,19.3,42,19.5,41.8,19.8z"/>
		<path id="Path_227-2" class="st2" d="M56.1,38.5c0,0-2.7-5.4-7.4-5"/>
		<path id="Path_228-2" class="st2" d="M42.2,39.1h7.9"/>
		<path id="Path_229-2" class="st2" d="M48.4,39.1v12"/>
		<g id="Ellipse_100-2" transform="translate(62.58 53.314)">
			<ellipse class="st1" cx="4.7" cy="4.7" rx="4.7" ry="4.7"/>
			<ellipse class="st2" cx="4.7" cy="4.7" rx="4" ry="4"/>
		</g>
		<g id="Ellipse_101" transform="translate(10.58 52.314)">
			<ellipse class="st1" cx="4.7" cy="4.7" rx="4.7" ry="4.7"/>
			<ellipse class="st2" cx="4.7" cy="4.7" rx="4" ry="4"/>
		</g>
		<g id="Group_115" transform="translate(-1 17.72)">
			<rect id="Rectangle_271" x="3" y="0" class="st3" width="16.3" height="3.1"/>
			<g id="Group_114" transform="translate(3.176 17.164)">
				<rect id="Rectangle_272" x="0" y="0" class="st3" width="6.2" height="3.1"/>
				<rect id="Rectangle_273" x="8.9" y="0" class="st3" width="7.1" height="3.1"/>
			</g>
			<g id="Group_116" transform="translate(0 7.635)">
				<rect id="Rectangle_272-2" x="1" y="0" class="st3" width="10.6" height="3.1"/>
				<rect id="Rectangle_273-2" x="14.2" y="0" class="st3" width="5" height="3.1"/>
			</g>
			<rect id="Rectangle_274" x="1" y="25.7" class="st3" width="18.5" height="3.1"/>
		</g>
	</g>
</g>
</svg>
