<?xml version="1.0" encoding="utf-8"?>
<!-- Generator: Adobe Illustrator 23.0.1, SVG Export Plug-In . SVG Version: 6.00 Build 0)  -->
<svg version="1.1" id="Layer_1" xmlns="http://www.w3.org/2000/svg" xmlns:xlink="http://www.w3.org/1999/xlink" x="0px" y="0px"
	 viewBox="0 0 14 14" style="enable-background:new 0 0 14 14;" xml:space="preserve">
<style type="text/css">
	.st0{fill:#6742C0;}
</style>
<g>
	<g>
		<g id="ic_modemdetails">
			<g id="router" transform="translate(0.5 -5.692)">
				<path id="Path_23" class="st0" d="M13.3,13.9H-0.2v2.2c0,0.4,0.3,0.7,0.7,0.7l0,0h12.1c0.4,0,0.7-0.3,0.7-0.7l0,0L13.3,13.9z
					 M1.2,16.3c-0.5,0-0.9-0.4-0.9-0.9c0-0.5,0.4-0.9,0.9-0.9s0.9,0.4,0.9,0.9C2.2,15.9,1.7,16.3,1.2,16.3L1.2,16.3z M5.8,15.6H2.9
					c-0.1,0-0.2-0.1-0.2-0.2c0-0.1,0.1-0.2,0.2-0.2h2.9c0.1,0,0.2,0.1,0.2,0.2C6.1,15.5,6,15.6,5.8,15.6z M7.5,15.9H7V15h0.5V15.9z
					 M8.5,15.9H7.9V15h0.5V15.9z M9.4,15.9H9V15h0.5L9.4,15.9z M10.4,15.9H9.9V15h0.5V15.9z M11.4,15.9h-0.5V15h0.5V15.9z
					 M12.3,15.9h-0.5V15h0.5V15.9z"/>
				<path id="Path_26" class="st0" d="M0.6,10.1l-0.7,3.3h13.5l-0.7-3.3c-0.1-0.3-0.4-0.5-0.7-0.5H1.2C0.9,9.6,0.6,9.8,0.6,10.1
					L0.6,10.1z M10.8,10.1h0.9c0.1,0,0.2,0.1,0.2,0.2c0,0.1-0.1,0.2-0.2,0.2h-0.9c-0.1,0-0.2-0.1-0.2-0.2S10.7,10.1,10.8,10.1z
					 M10.1,10.3c0,0.1-0.1,0.2-0.2,0.2l0,0H1.2c-0.1,0-0.2-0.1-0.2-0.2c0-0.1,0.1-0.2,0.2-0.2h8.7C10,10.1,10.1,10.2,10.1,10.3
					L10.1,10.3L10.1,10.3z"/>
				<path id="Path_27" class="st0" d="M1.7,15.4c0,0.3-0.2,0.5-0.5,0.5s-0.5-0.2-0.5-0.5s0.2-0.5,0.5-0.5S1.7,15.1,1.7,15.4
					L1.7,15.4z"/>
			</g>
		</g>
	</g>
</g>
</svg>
