<?xml version="1.0" encoding="utf-8"?>
<!-- Generator: Adobe Illustrator 23.0.2, SVG Export Plug-In . SVG Version: 6.00 Build 0)  -->
<svg version="1.1" id="Layer_1" xmlns="http://www.w3.org/2000/svg" xmlns:xlink="http://www.w3.org/1999/xlink" x="0px" y="0px"
	 viewBox="0 0 18 18" style="enable-background:new 0 0 18 18;" xml:space="preserve">
<style type="text/css">
	.st0{fill:#5D33DD;}
</style>
<g>
	<g>
		<g id="ic_searchfilter-focus">
			<g id="Group_190" transform="translate(1.5 5)">
				<path id="Path_103" class="st0" d="M8.6,2.3c0-2.7-2.3-5-5.1-5c-2.8,0-5.1,2.2-5.1,5s2.3,5,5.1,5c0,0,0,0,0,0
					C6.4,7.3,8.6,5.1,8.6,2.3z M3.6,6C1.5,6-0.2,4.4-0.2,2.3s1.7-3.7,3.8-3.7s3.8,1.7,3.8,3.7l0,0C7.4,4.4,5.7,6,3.6,6z"/>
				<path id="Path_104" class="st0" d="M11.6,8.5l-3.1-3C8.1,6.1,7.5,6.7,6.8,7.2l3.1,3c0.5,0.5,1.3,0.5,1.8,0
					C12.1,9.7,12.1,9,11.6,8.5L11.6,8.5z"/>
			</g>
		</g>
	</g>
	<rect x="11.2" y="3.8" class="st0" width="6.8" height="0.8"/>
	<rect x="11.2" y="6.5" class="st0" width="4.4" height="0.8"/>
	<rect x="11.2" y="9.3" class="st0" width="2.3" height="0.8"/>
</g>
</svg>
